<?xml version="1.0" standalone="no"?>
        <!DOCTYPE svg PUBLIC "-//W3C//DTD SVG 1.1//EN" 
        "http://www.w3.org/Graphics/SVG/1.1/DTD/svg11.dtd"><svg id="changeColor" fill="#DC7633" xmlns="http://www.w3.org/2000/svg" xmlns:xlink="http://www.w3.org/1999/xlink" width="59" zoomAndPan="magnify" viewBox="0 0 375 374.9999" height="59" preserveAspectRatio="xMidYMid meet" version="1.0"><defs><path id="pathAttribute" d="M 7.09375 7.09375 L 367.84375 7.09375 L 367.84375 367.84375 L 7.09375 367.84375 Z M 7.09375 7.09375 " fill="#000000"></path></defs><g><path id="pathAttribute" d="M 187.46875 7.09375 C 87.851562 7.09375 7.09375 87.851562 7.09375 187.46875 C 7.09375 287.085938 87.851562 367.84375 187.46875 367.84375 C 287.085938 367.84375 367.84375 287.085938 367.84375 187.46875 C 367.84375 87.851562 287.085938 7.09375 187.46875 7.09375 " fill-opacity="1" fill-rule="nonzero" fill="#000000"></path></g><g id="inner-icon" transform="translate(85, 75)"> <svg xmlns="http://www.w3.org/2000/svg" width="199.8" height="199.8" fill="currentColor" class="bi bi-facebook" viewBox="0 0 16 16" id="IconChangeColor"> <path d="M16 8.049c0-4.446-3.582-8.05-8-8.05C3.58 0-.002 3.603-.002 8.05c0 4.017 2.926 7.347 6.75 7.951v-5.625h-2.03V8.05H6.75V6.275c0-2.017 1.195-3.131 3.022-3.131.876 0 1.791.157 1.791.157v1.98h-1.009c-.993 0-1.303.621-1.303 1.258v1.51h2.218l-.354 2.326H9.25V16c3.824-.604 6.75-3.934 6.75-7.951z" id="mainIconPathAttribute" fill="#ffffff"></path> </svg> </g></svg>